<mxfile host="app.diagrams.net" agent="Mozilla/5.0 (Windows NT 10.0; Win64; x64) AppleWebKit/537.36 (KHTML, like Gecko) Chrome/135.0.0.0 Safari/537.36" version="27.0.2">
  <diagram name="第 1 页" id="G02mGYz5wIi6301U5A-d">
    <mxGraphModel dx="1213" dy="730" grid="0" gridSize="10" guides="1" tooltips="1" connect="1" arrows="1" fold="1" page="1" pageScale="1" pageWidth="827" pageHeight="1169" background="none" math="0" shadow="0">
      <root>
        <mxCell id="0" />
        <mxCell id="1" parent="0" />
        <mxCell id="_MeUk_MtOAHXq6fmBLRG-9" value="" style="edgeStyle=orthogonalEdgeStyle;rounded=0;orthogonalLoop=1;jettySize=auto;html=1;" edge="1" parent="1" source="_MeUk_MtOAHXq6fmBLRG-1" target="_MeUk_MtOAHXq6fmBLRG-8">
          <mxGeometry relative="1" as="geometry" />
        </mxCell>
        <mxCell id="_MeUk_MtOAHXq6fmBLRG-1" value="" style="ellipse;fillColor=strokeColor;html=1;" vertex="1" parent="1">
          <mxGeometry x="377" y="36" width="30" height="30" as="geometry" />
        </mxCell>
        <mxCell id="_MeUk_MtOAHXq6fmBLRG-2" value="" style="ellipse;html=1;shape=endState;fillColor=strokeColor;" vertex="1" parent="1">
          <mxGeometry x="377" y="502" width="30" height="30" as="geometry" />
        </mxCell>
        <mxCell id="_MeUk_MtOAHXq6fmBLRG-13" value="" style="edgeStyle=orthogonalEdgeStyle;rounded=0;orthogonalLoop=1;jettySize=auto;html=1;" edge="1" parent="1" source="_MeUk_MtOAHXq6fmBLRG-8" target="_MeUk_MtOAHXq6fmBLRG-10">
          <mxGeometry relative="1" as="geometry" />
        </mxCell>
        <mxCell id="_MeUk_MtOAHXq6fmBLRG-8" value="用户在编辑器中修改鸿蒙相关配置" style="rounded=1;whiteSpace=wrap;html=1;" vertex="1" parent="1">
          <mxGeometry x="317" y="98" width="150" height="60" as="geometry" />
        </mxCell>
        <mxCell id="_MeUk_MtOAHXq6fmBLRG-14" value="" style="edgeStyle=orthogonalEdgeStyle;rounded=0;orthogonalLoop=1;jettySize=auto;html=1;" edge="1" parent="1" source="_MeUk_MtOAHXq6fmBLRG-10" target="_MeUk_MtOAHXq6fmBLRG-11">
          <mxGeometry relative="1" as="geometry" />
        </mxCell>
        <mxCell id="_MeUk_MtOAHXq6fmBLRG-10" value="触发属性变更事件（FPropertyChangedEvent）" style="rounded=1;whiteSpace=wrap;html=1;" vertex="1" parent="1">
          <mxGeometry x="317" y="199" width="150" height="60" as="geometry" />
        </mxCell>
        <mxCell id="_MeUk_MtOAHXq6fmBLRG-15" value="" style="edgeStyle=orthogonalEdgeStyle;rounded=0;orthogonalLoop=1;jettySize=auto;html=1;" edge="1" parent="1" source="_MeUk_MtOAHXq6fmBLRG-11" target="_MeUk_MtOAHXq6fmBLRG-12">
          <mxGeometry relative="1" as="geometry" />
        </mxCell>
        <mxCell id="_MeUk_MtOAHXq6fmBLRG-11" value="配置类调用PostEditChangeProperty()" style="rounded=1;whiteSpace=wrap;html=1;" vertex="1" parent="1">
          <mxGeometry x="317" y="302" width="150" height="60" as="geometry" />
        </mxCell>
        <mxCell id="_MeUk_MtOAHXq6fmBLRG-16" value="" style="edgeStyle=orthogonalEdgeStyle;rounded=0;orthogonalLoop=1;jettySize=auto;html=1;" edge="1" parent="1" source="_MeUk_MtOAHXq6fmBLRG-12" target="_MeUk_MtOAHXq6fmBLRG-2">
          <mxGeometry relative="1" as="geometry" />
        </mxCell>
        <mxCell id="_MeUk_MtOAHXq6fmBLRG-12" value="调用SaveConfig()将改动写入配置文件" style="rounded=1;whiteSpace=wrap;html=1;" vertex="1" parent="1">
          <mxGeometry x="317" y="406" width="150" height="60" as="geometry" />
        </mxCell>
      </root>
    </mxGraphModel>
  </diagram>
</mxfile>
